<?xml version="1.0" encoding="utf-8"?>
<!-- Generator: Adobe Illustrator 21.1.0, SVG Export Plug-In . SVG Version: 6.00 Build 0)  -->
<svg version="1.1" id="Capa_1" xmlns="http://www.w3.org/2000/svg" xmlns:xlink="http://www.w3.org/1999/xlink" x="0px" y="0px"
	 viewBox="0 0 792 286" style="enable-background:new 0 0 792 286;" xml:space="preserve">
<style type="text/css">
	.st0{fill:none;stroke:#000000;stroke-width:10;stroke-miterlimit:10;}
	.st1{fill:url(#SVGID_1_);}
	.st2{fill:url(#SVGID_2_);}
	.st3{fill:url(#SVGID_3_);}
	.st4{fill:url(#SVGID_4_);}
	.st5{fill:url(#SVGID_5_);}
	.st6{fill:url(#SVGID_6_);}
	.st7{fill:url(#SVGID_7_);}
</style>
<path class="st0" d="M900.6-296.8"/>
<g>
	<linearGradient id="SVGID_1_" gradientUnits="userSpaceOnUse" x1="6.4962" y1="135.7211" x2="137.4626" y2="135.7211">
		<stop  offset="0" style="stop-color:#93167C"/>
		<stop  offset="1" style="stop-color:#DF2A59"/>
	</linearGradient>
	<polygon class="st1" points="6.5,240.1 19.6,240.1 137.5,35.9 126.9,31.3 	"/>
	<linearGradient id="SVGID_2_" gradientUnits="userSpaceOnUse" x1="185.932" y1="82.3516" x2="247.593" y2="82.3516">
		<stop  offset="0" style="stop-color:#3B61B8"/>
		<stop  offset="1" style="stop-color:#35F4C9"/>
	</linearGradient>
	<polygon class="st2" points="185.9,123.8 193.9,134 247.6,40.9 239.7,30.7 	"/>
	<linearGradient id="SVGID_3_" gradientUnits="userSpaceOnUse" x1="248.3611" y1="99.9883" x2="211.2628" y2="167.4867">
		<stop  offset="0" style="stop-color:#3B61B8"/>
		<stop  offset="1" style="stop-color:#35F4C9"/>
	</linearGradient>
	<polygon class="st3" points="208.2,159 218.3,165.8 250.7,109.6 241.2,101.9 	"/>
	<linearGradient id="SVGID_4_" gradientUnits="userSpaceOnUse" x1="139.4726" y1="107.7456" x2="63.2988" y2="236.5395">
		<stop  offset="0" style="stop-color:#93167C"/>
		<stop  offset="1" style="stop-color:#DF2A59"/>
	</linearGradient>
	<polygon class="st4" points="60.7,230.1 69.8,239.4 136.4,124 136,99.8 	"/>
	<linearGradient id="SVGID_5_" gradientUnits="userSpaceOnUse" x1="245.5993" y1="21.2642" x2="245.5993" y2="147.5397">
		<stop  offset="0" style="stop-color:#3B61B8"/>
		<stop  offset="1" style="stop-color:#35F4C9"/>
	</linearGradient>
	<polygon class="st5" points="251.2,108.9 240,128.2 240,30.7 251.2,37.3 	"/>
	<linearGradient id="SVGID_6_" gradientUnits="userSpaceOnUse" x1="90.225" y1="233.7355" x2="-0.8842" y2="233.7355">
		<stop  offset="0" style="stop-color:#93167C"/>
		<stop  offset="1" style="stop-color:#DF2A59"/>
	</linearGradient>
	<polygon class="st6" points="69.4,240.1 76.4,227.6 13.8,227.4 6.5,240.1 	"/>
	<linearGradient id="SVGID_7_" gradientUnits="userSpaceOnUse" x1="126.8079" y1="135.4564" x2="261.8362" y2="135.4564">
		<stop  offset="0" style="stop-color:#93167C"/>
		<stop  offset="1" style="stop-color:#DF2A59"/>
	</linearGradient>
	<polygon class="st7" points="261.8,240.4 248.2,240.5 126.8,30.8 141.2,30.4 	"/>
</g>
<g>
	<path d="M328.2,128.2l15.1,34.4h-3.9l-4.7-10.6h-15.8l-4.7,10.6h-3.9l15.1-34.4H328.2z M333.1,148.3l-6.3-14.4l-6.3,14.4H333.1z"/>
	<path d="M369.8,159v3.6h-22.7v-34.4h3.6V159H369.8z"/>
	<path d="M373.7,128.2h22.6v3.6h-19v11.8h13.9v3.6h-13.9V159h19v3.6h-22.6V128.2z"/>
	<path d="M418.8,128.2v17.3c0,2.4-0.5,4.6-1.4,6.7c-0.9,2.1-2.1,3.9-3.7,5.5c-1.6,1.6-3.4,2.8-5.5,3.7c-2.1,0.9-4.3,1.3-6.7,1.3
		h-1.3v-3.5h1.3c1.9,0,3.7-0.4,5.3-1.1c1.7-0.7,3.1-1.7,4.3-2.9c1.2-1.2,2.2-2.7,2.9-4.3c0.7-1.7,1.1-3.4,1.1-5.3v-17.3H418.8z"/>
	<path d="M436.7,128.2l15.1,34.4h-3.9l-4.7-10.6h-15.8l-4.7,10.6h-3.9l15.1-34.4H436.7z M441.6,148.3l-6.3-14.4l-6.3,14.4H441.6z"/>
	<path d="M480,128.2h3.6v34.4h-2.9L459.2,135v27.5h-3.6v-34.4h2.9l21.5,27.5V128.2z"/>
	<path d="M505.1,129.5c2.1,0.9,3.9,2.1,5.5,3.7c1.6,1.6,2.8,3.4,3.7,5.5c0.9,2.1,1.3,4.3,1.3,6.7c0,2.4-0.5,4.6-1.3,6.7
		c-0.9,2.1-2.1,3.9-3.7,5.5c-1.6,1.6-3.4,2.8-5.5,3.7c-2.1,0.9-4.3,1.3-6.7,1.3h-11v-34.4h11C500.8,128.2,503,128.6,505.1,129.5z
		 M503.7,157.9c1.7-0.7,3.1-1.7,4.3-2.9c1.2-1.2,2.2-2.7,2.9-4.3c0.7-1.6,1.1-3.4,1.1-5.3c0-1.9-0.4-3.6-1.1-5.3
		c-0.7-1.7-1.7-3.1-2.9-4.3c-1.2-1.2-2.7-2.2-4.3-2.9c-1.7-0.7-3.4-1.1-5.3-1.1h-7.4V159h7.4C500.3,159,502,158.6,503.7,157.9z"/>
	<path d="M527.4,147.2l17.4,15.4h-5.3L523,148v14.6h-3.6v-34.4h13.6c1.3,0,2.5,0.2,3.7,0.7c1.2,0.5,2.2,1.2,3,2c0.9,0.9,1.5,1.9,2,3
		c0.5,1.2,0.7,2.4,0.7,3.7c0,1.3-0.2,2.5-0.7,3.7c-0.5,1.2-1.2,2.2-2,3c-0.9,0.9-1.9,1.5-3,2c-1.2,0.5-2.4,0.7-3.7,0.7H527.4z
		 M523,143.6h10c0.8,0,1.6-0.2,2.3-0.5c0.7-0.3,1.3-0.7,1.9-1.3c0.5-0.5,0.9-1.2,1.3-1.9c0.3-0.7,0.5-1.5,0.5-2.3
		c0-0.8-0.2-1.6-0.5-2.3c-0.3-0.7-0.7-1.3-1.3-1.9c-0.5-0.5-1.2-0.9-1.9-1.2c-0.7-0.3-1.5-0.5-2.3-0.5h-10V143.6z"/>
	<path d="M566.4,128.2l15.1,34.4h-3.9l-4.7-10.6h-15.8l-4.7,10.6h-3.9l15.1-34.4H566.4z M571.3,148.3L565,134l-6.3,14.4H571.3z"/>
	<path d="M628.5,162.6h-5l-16.2-16.2l-1.6,1.6v14.6H602v-34.4h3.6v14.7l14.7-14.7h5l-15.6,15.6L628.5,162.6z"/>
	<path d="M650.1,128.2l15.1,34.4h-3.9l-4.7-10.6h-15.8l-4.7,10.6h-3.9l15.1-34.4H650.1z M655.1,148.3l-6.3-14.4l-6.3,14.4H655.1z"/>
	<path d="M693.5,128.2h3.6v34.4h-2.9L672.7,135v27.5h-3.6v-34.4h2.9l21.5,27.5V128.2z"/>
	<path d="M700.9,128.2h25.7v3.6h-11.1v30.8H712v-30.8h-11.1V128.2z"/>
	<path d="M742.8,128.2c2.3,0,4.5,0.4,6.6,1.3c2.1,0.9,3.9,2.1,5.4,3.7c1.5,1.5,2.8,3.3,3.7,5.4c0.9,2.1,1.3,4.3,1.3,6.6
		c0,2.4-0.4,4.6-1.3,6.7c-0.9,2.1-2.1,3.9-3.7,5.4c-1.5,1.5-3.3,2.8-5.4,3.7c-2.1,0.9-4.3,1.3-6.6,1.3c-2.4,0-4.6-0.4-6.7-1.3
		c-2.1-0.9-3.9-2.1-5.4-3.7c-1.5-1.5-2.8-3.3-3.7-5.4c-0.9-2.1-1.3-4.3-1.3-6.7c0-2.3,0.4-4.6,1.3-6.6c0.9-2.1,2.1-3.9,3.7-5.4
		c1.5-1.5,3.3-2.8,5.4-3.7C738.2,128.7,740.4,128.2,742.8,128.2z M742.8,158.9c1.9,0,3.6-0.4,5.2-1.1c1.6-0.7,3.1-1.7,4.3-2.9
		c1.2-1.2,2.2-2.6,2.9-4.3c0.7-1.6,1.1-3.4,1.1-5.3c0-1.9-0.4-3.6-1.1-5.2s-1.7-3.1-2.9-4.3c-1.2-1.2-2.7-2.2-4.3-2.9
		c-1.6-0.7-3.4-1.1-5.2-1.1c-1.9,0-3.6,0.4-5.2,1.1c-1.6,0.7-3.1,1.7-4.3,2.9c-1.2,1.2-2.2,2.7-2.9,4.3c-0.7,1.6-1.1,3.4-1.1,5.2
		c0,1.9,0.4,3.6,1.1,5.3c0.7,1.6,1.7,3.1,2.9,4.3c1.2,1.2,2.7,2.2,4.3,2.9C739.2,158.5,740.9,158.9,742.8,158.9z"/>
	<path d="M771.6,147.2l17.4,15.4h-5.3L767.2,148v14.6h-3.6v-34.4h13.6c1.3,0,2.5,0.2,3.7,0.7c1.2,0.5,2.2,1.2,3,2
		c0.9,0.9,1.5,1.9,2,3c0.5,1.2,0.7,2.4,0.7,3.7c0,1.3-0.2,2.5-0.7,3.7c-0.5,1.2-1.2,2.2-2,3c-0.9,0.9-1.9,1.5-3,2
		c-1.2,0.5-2.4,0.7-3.7,0.7H771.6z M767.2,143.6h10c0.8,0,1.6-0.2,2.3-0.5c0.7-0.3,1.3-0.7,1.9-1.3c0.5-0.5,0.9-1.2,1.3-1.9
		c0.3-0.7,0.5-1.5,0.5-2.3c0-0.8-0.2-1.6-0.5-2.3c-0.3-0.7-0.7-1.3-1.3-1.9c-0.5-0.5-1.2-0.9-1.9-1.2c-0.7-0.3-1.5-0.5-2.3-0.5h-10
		V143.6z"/>
</g>
<g>
	<path d="M423.1,188.1l-1-2.3h-5.6l-1,2.3h-0.8l4.2-9.4h0.8l4.2,9.4H423.1z M421.8,185.1l-2.5-5.7l-2.5,5.7H421.8z"/>
	<path d="M431.9,188.1v-1.2c-0.5,0.9-1.4,1.3-2.4,1.3c-1.8,0-3-1.1-3-2.9v-3.8h0.7v3.8c0,1.5,0.9,2.3,2.4,2.3c1.4,0,2.3-1,2.3-2.4
		v-3.7h0.7v6.7H431.9z"/>
	<path d="M442.7,178.7v9.4H442v-1.5c-0.6,1-1.6,1.6-2.8,1.6c-1.9,0-3.3-1.2-3.3-3.4c0-2.2,1.5-3.4,3.3-3.4c1.1,0,2.2,0.5,2.8,1.6
		v-4.2H442.7z M436.6,184.8c0,1.8,1.2,2.8,2.7,2.8c1.6,0,2.7-1.1,2.7-2.8s-1.2-2.8-2.7-2.8C437.8,182,436.6,182.9,436.6,184.8z"/>
	<path d="M447.5,179.3c0,0.7-1.1,0.7-1.1,0C446.4,178.6,447.5,178.6,447.5,179.3z M446.6,181.5v6.7h0.7v-6.7H446.6z"/>
	<path d="M451,184.8c0-2.1,1.5-3.5,3.4-3.5c1.9,0,3.4,1.3,3.4,3.5c0,2.1-1.5,3.4-3.4,3.4C452.5,188.2,451,186.9,451,184.8z
		 M457.1,184.8c0-1.7-1.2-2.8-2.7-2.8c-1.5,0-2.7,1.1-2.7,2.8s1.2,2.8,2.7,2.8C455.9,187.6,457.1,186.5,457.1,184.8z"/>
	<path d="M460.5,181.5h0.7l2.4,5.9l2.4-5.9h0.7l-2.8,6.6h-0.7L460.5,181.5z"/>
	<path d="M470.8,179.3c0,0.7-1.1,0.7-1.1,0C469.7,178.6,470.8,178.6,470.8,179.3z M469.9,181.5v6.7h0.7v-6.7H469.9z"/>
	<path d="M479,182.7c-0.7-0.6-1.3-0.7-2.1-0.7c-1,0-2,0.4-2,1.2c0,0.9,1.2,1.1,2,1.2c1.2,0.2,2.8,0.4,2.7,1.9c0,1.5-1.6,1.9-2.7,1.9
		c-1.2,0-2.3-0.4-2.9-1.3l0.5-0.4c0.6,0.8,1.5,1.1,2.4,1.1c0.8,0,2-0.2,2.1-1.3c0-1-1.1-1.1-2.2-1.3c-1.3-0.2-2.6-0.5-2.6-1.8
		c0-1.3,1.3-1.9,2.6-1.9c1,0,1.8,0.3,2.5,0.9L479,182.7z"/>
	<path d="M488.5,188.1v-1.2c-0.5,0.9-1.4,1.3-2.4,1.3c-1.8,0-3-1.1-3-2.9v-3.8h0.7v3.8c0,1.5,0.9,2.3,2.4,2.3c1.4,0,2.3-1,2.3-2.4
		v-3.7h0.7v6.7H488.5z"/>
	<path d="M499.3,181.5c0,2.2,0,4.4,0,6.6h-0.7v-1.4c-0.6,1-1.6,1.5-2.7,1.5c-1.9,0-3.4-1.4-3.4-3.4c0-2,1.5-3.4,3.4-3.4
		c1.1,0,2.2,0.5,2.7,1.5v-1.5H499.3z M493.2,184.8c0,1.7,1.2,2.8,2.7,2.8c3.7,0,3.7-5.6,0-5.6C494.5,182,493.2,183.1,493.2,184.8z"
		/>
	<path d="M503.8,178.7v9.4h-0.7v-9.4H503.8z"/>
	<path d="M519.8,181.5c0,2.2,0,4.4,0,6.6h-0.7v-1.4c-0.6,1-1.6,1.5-2.7,1.5c-1.9,0-3.4-1.4-3.4-3.4c0-2,1.5-3.4,3.4-3.4
		c1.1,0,2.2,0.5,2.7,1.5v-1.5H519.8z M513.7,184.8c0,1.7,1.2,2.8,2.7,2.8c3.7,0,3.7-5.6,0-5.6C514.9,182,513.7,183.1,513.7,184.8z"
		/>
	<path d="M524.2,181.5v1.2c0.5-0.9,1.4-1.3,2.4-1.3c1.8,0,3,1.1,3,2.9v3.8h-0.7v-3.8c0-1.5-0.9-2.3-2.4-2.3c-1.4,0-2.3,1-2.3,2.4
		v3.7h-0.7v-6.6H524.2z"/>
	<path d="M539.7,178.7v9.4H539v-1.5c-0.6,1-1.6,1.6-2.8,1.6c-1.9,0-3.3-1.2-3.3-3.4c0-2.2,1.5-3.4,3.3-3.4c1.1,0,2.2,0.5,2.8,1.6
		v-4.2H539.7z M533.6,184.8c0,1.8,1.2,2.8,2.7,2.8c1.6,0,2.7-1.1,2.7-2.8s-1.2-2.8-2.7-2.8C534.8,182,533.6,182.9,533.6,184.8z"/>
	<path d="M556.8,180.4c-0.8-0.8-2-1.2-3-1.2c-2.8,0-4.2,2-4.2,4.2c0,2.2,1.4,4.1,4.2,4.1c1,0,2.1-0.3,2.9-1.1v-2.6h-3.3v-0.6h4v3.5
		c-1,1-2.2,1.5-3.5,1.5c-3.2,0-4.9-2.2-4.9-4.8c0-2.9,2-4.9,4.9-4.9c1.2,0,2.5,0.5,3.4,1.4L556.8,180.4z"/>
	<path d="M561.8,181.5l0,1.2c0.4-0.9,1.4-1.3,2.2-1.3c0.5,0,1,0.1,1.4,0.4l-0.3,0.5c-0.3-0.2-0.7-0.3-1.1-0.3c-1.2,0-2.2,1-2.2,2.2
		v3.9h-0.7v-6.6H561.8z"/>
	<path d="M574.9,181.5c0,2.2,0,4.4,0,6.6h-0.7v-1.4c-0.6,1-1.6,1.5-2.7,1.5c-1.9,0-3.4-1.4-3.4-3.4c0-2,1.5-3.4,3.4-3.4
		c1.1,0,2.2,0.5,2.7,1.5v-1.5H574.9z M568.8,184.8c0,1.7,1.2,2.8,2.7,2.8c3.7,0,3.7-5.6,0-5.6C570,182,568.8,183.1,568.8,184.8z"/>
	<path d="M578.7,190.9v-9.4h0.6v1.6c0.5-1,1.6-1.7,2.9-1.7c1.8,0.1,3.2,1.3,3.2,3.4c0,2.2-1.5,3.4-3.4,3.4c-1.1,0-2.2-0.6-2.7-1.7
		v4.3H578.7z M584.8,184.8c0-1.9-1.2-2.8-2.7-2.8c-1.5,0-2.7,1.2-2.7,2.8c0,1.6,1.2,2.8,2.7,2.8
		C583.6,187.6,584.8,186.7,584.8,184.8z"/>
	<path d="M589.7,178.7v4c0.5-1,1.5-1.3,2.4-1.3c1.9,0,2.8,1.2,2.8,2.9v3.8h-0.6v-3.8c0-1.4-0.6-2.3-2.1-2.3c-1.4,0-2.4,1.1-2.4,2.5
		v3.6h-0.7v-9.4H589.7z"/>
	<path d="M599.5,179.3c0,0.7-1.1,0.7-1.1,0C598.4,178.6,599.5,178.6,599.5,179.3z M598.6,181.5v6.7h0.7v-6.7H598.6z"/>
	<path d="M608.6,187.2c-0.7,0.7-1.5,1-2.4,1c-1.9,0-3.4-1.3-3.4-3.4c0-2.1,1.5-3.4,3.4-3.4c0.9,0,1.7,0.3,2.4,1l-0.4,0.4
		c-0.5-0.5-1.3-0.8-2-0.8c-1.5,0-2.8,1-2.8,2.8s1.3,2.8,2.8,2.8c0.7,0,1.4-0.3,2-0.8L608.6,187.2z"/>
	<path d="M625.7,183.3c0.1,2.4-1.5,4.8-4.8,4.8c-1.1,0-2.1,0-3.2,0v-9.4c1.1,0,2.1,0,3.2,0C624.1,178.7,625.7,181,625.7,183.3z
		 M618.5,179.4v8h2.5c2.8,0,4.1-2.1,4-4.1c0-2-1.3-3.9-4-3.9H618.5z"/>
	<path d="M629.2,184.8c0-2,1.5-3.4,3.4-3.4c1.9,0,3.5,1.1,3.3,3.7h-6c0.1,1.6,1.3,2.5,2.7,2.5c0.9,0,1.9-0.3,2.4-1l0.5,0.4
		c-0.6,0.8-1.8,1.3-2.9,1.3C630.7,188.2,629.2,186.9,629.2,184.8z M635.2,184.5c0-1.6-1.1-2.6-2.7-2.6c-1.4,0-2.6,0.9-2.7,2.6H635.2
		z"/>
	<path d="M644.1,182.7c-0.7-0.6-1.3-0.7-2.1-0.7c-1,0-2,0.4-2,1.2c0,0.9,1.2,1.1,2,1.2c1.2,0.2,2.8,0.4,2.7,1.9
		c0,1.5-1.6,1.9-2.7,1.9c-1.2,0-2.3-0.4-2.9-1.3l0.5-0.4c0.6,0.8,1.5,1.1,2.4,1.1c0.8,0,2-0.2,2.1-1.3c0-1-1.1-1.1-2.2-1.3
		c-1.3-0.2-2.6-0.5-2.6-1.8c0-1.3,1.3-1.9,2.6-1.9c1,0,1.8,0.3,2.5,0.9L644.1,182.7z"/>
	<path d="M649.1,179.3c0,0.7-1.1,0.7-1.1,0C648.1,178.6,649.1,178.6,649.1,179.3z M648.3,181.5v6.7h0.7v-6.7H648.3z"/>
	<path d="M658.2,181.2l0.4,0.4l-0.6,0.8c0.5,0.5,0.8,1.2,0.8,2.3c0,1.2-0.7,2.3-1.8,2.8c1.2,0.4,1.8,1.2,1.8,2.4
		c0,1.8-1.4,2.6-3.2,2.6s-3.1-1-3.1-2.6h0.7c0,1.4,1.2,2,2.5,2s2.5-0.6,2.5-2c0-1.4-1.3-2-2.5-2c-1.9,0-3.1-1.4-3.1-3.2
		c0-2.1,1.4-3.2,3.1-3.2c0.7,0,1.4,0.2,1.9,0.6L658.2,181.2z M653.2,184.6c0,1.4,0.9,2.6,2.5,2.6c1.4,0,2.5-1.2,2.5-2.6
		c0-1.7-1.1-2.6-2.5-2.6C654.3,182,653.2,182.9,653.2,184.6z"/>
	<path d="M662.8,181.5v1.2c0.5-0.9,1.4-1.3,2.4-1.3c1.8,0,3,1.1,3,2.9v3.8h-0.7v-3.8c0-1.5-0.9-2.3-2.4-2.3c-1.4,0-2.3,1-2.3,2.4
		v3.7h-0.7v-6.6H662.8z"/>
	<path d="M671.5,184.8c0-2,1.5-3.4,3.4-3.4c1.9,0,3.5,1.1,3.3,3.7h-6c0.1,1.6,1.3,2.5,2.7,2.5c0.9,0,1.9-0.3,2.4-1l0.5,0.4
		c-0.6,0.8-1.8,1.3-2.9,1.3C673,188.2,671.5,186.9,671.5,184.8z M677.6,184.5c0-1.6-1.1-2.6-2.7-2.6c-1.4,0-2.6,0.9-2.7,2.6H677.6z"
		/>
	<path d="M682.5,181.5l0,1.2c0.4-0.9,1.4-1.3,2.2-1.3c0.5,0,1,0.1,1.4,0.4l-0.3,0.5c-0.3-0.2-0.7-0.3-1.1-0.3c-1.2,0-2.2,1-2.2,2.2
		v3.9h-0.7v-6.6H682.5z"/>
</g>
</svg>
